<?xml version="1.0" encoding="utf-8"?>
<!-- Generator: Adobe Illustrator 26.0.1, SVG Export Plug-In . SVG Version: 6.00 Build 0)  -->
<svg version="1.1" id="Layer_1" xmlns:serif="http://www.serif.com/"
	 xmlns="http://www.w3.org/2000/svg" xmlns:xlink="http://www.w3.org/1999/xlink" x="0px" y="0px" viewBox="0 0 1920 1080"
	 style="enable-background:new 0 0 1920 1080;" xml:space="preserve">
<style type="text/css">
	
		.st0{fill-rule:evenodd;clip-rule:evenodd;fill:#FFFFFF;stroke:#000000;stroke-width:1.125;stroke-linejoin:round;stroke-miterlimit:3;}
	
		.st1{fill-rule:evenodd;clip-rule:evenodd;fill:#FFFFFF;stroke:#000000;stroke-width:1.05;stroke-linejoin:round;stroke-miterlimit:3;}
	.st2{fill-rule:evenodd;clip-rule:evenodd;fill:#76A5AF;}
	
		.st3{fill-rule:evenodd;clip-rule:evenodd;fill:#FFFFFF;stroke:#000000;stroke-width:0.75;stroke-linejoin:round;stroke-miterlimit:3;}
	
		.st4{fill-rule:evenodd;clip-rule:evenodd;fill:#FFFFFF;stroke:#000000;stroke-width:1.275;stroke-linejoin:round;stroke-miterlimit:3;}
	.st5{fill:none;}
	.st6{fill:none;stroke:#000000;stroke-width:1.5;stroke-linejoin:round;stroke-miterlimit:15;}
	.st7{fill-rule:evenodd;clip-rule:evenodd;fill-opacity:0;}
	
		.st8{fill-rule:evenodd;clip-rule:evenodd;fill:#FFFFFF;stroke:#000000;stroke-width:1.5;stroke-linejoin:round;stroke-miterlimit:3;}
	.st9{fill:#1F77B4;fill-opacity:0.2;stroke:#1F77B4;stroke-opacity:0.2;}
	.st10{fill:#FF7F0E;fill-opacity:0.2;stroke:#FF7F0E;stroke-opacity:0.2;}
	.st11{fill:none;stroke:#1F77B4;stroke-width:1.5;stroke-linecap:square;}
	.st12{fill:none;stroke:#FF7F0E;stroke-width:1.5;stroke-linecap:square;}
	.st13{font-family:'Helvetica-Bold';}
	.st14{font-size:22px;}
</style>
<g transform="matrix(8.33333,0,0,8.33333,0,0)">
	<path class="st0" d="M109.9,9.3c0-3.6,2.9-6.4,6.5-6.4c1.7,0,3.4,0.7,4.6,1.9c1.2,1.2,1.9,2.8,1.9,4.6c0,3.6-2.9,6.4-6.5,6.4
		S109.9,12.8,109.9,9.3L109.9,9.3z"/>
	<path d="M115.1,5.4V4.5h0.3l0.2,0.6l0.2-0.6h0.3v0.9h-0.2V4.7l-0.2,0.7h-0.2l-0.2-0.7v0.7H115.1z M116.4,5.4V5l-0.3-0.5h0.2
		l0.2,0.3l0.2-0.3h0.2L116.5,5v0.4H116.4z M117.5,5.1l0.2,0.1c0,0.1-0.1,0.2-0.1,0.2c-0.1,0-0.1,0.1-0.2,0.1c-0.1,0-0.2,0-0.3-0.1
		c-0.1-0.1-0.1-0.2-0.1-0.3c0-0.1,0-0.3,0.1-0.3c0.1-0.1,0.2-0.1,0.3-0.1c0.1,0,0.2,0,0.3,0.1c0,0,0.1,0.1,0.1,0.2l-0.2,0
		c0,0,0-0.1-0.1-0.1c0,0-0.1,0-0.1,0c-0.1,0-0.1,0-0.2,0.1c0,0-0.1,0.1-0.1,0.2c0,0.1,0,0.2,0.1,0.2c0,0,0.1,0.1,0.2,0.1
		c0,0,0.1,0,0.1,0C117.5,5.2,117.5,5.1,117.5,5.1z"/>
	<path class="st1" d="M70.8,9.3c0-3.6,2.9-6.4,6.5-6.4c1.7,0,3.4,0.7,4.6,1.9s1.9,2.8,1.9,4.6c0,3.6-2.9,6.4-6.5,6.4
		C73.7,15.7,70.8,12.8,70.8,9.3L70.8,9.3z"/>
	<path d="M75.7,5.4V4.5h0.4c0.1,0,0.2,0,0.2,0c0,0,0.1,0,0.1,0.1c0,0,0,0.1,0,0.1c0,0.1,0,0.1-0.1,0.2c0,0-0.1,0.1-0.2,0.1
		c0,0,0.1,0,0.1,0.1c0,0,0.1,0.1,0.1,0.1l0.1,0.2h-0.2l-0.1-0.2c0-0.1-0.1-0.1-0.1-0.1c0,0,0,0-0.1,0c0,0,0,0-0.1,0h0v0.4H75.7z
		 M75.9,4.9H76c0.1,0,0.1,0,0.2,0c0,0,0,0,0,0c0,0,0,0,0-0.1c0,0,0-0.1,0-0.1c0,0,0,0-0.1,0c0,0-0.1,0-0.1,0h-0.1V4.9z M76.6,5.4
		V4.5h0.6v0.1h-0.5v0.2h0.4V5h-0.4v0.2h0.5v0.1H76.6z M77.4,5.4V4.5h0.2v0.7H78v0.1H77.4z M78.9,5.4h-0.2l-0.1-0.2h-0.3l-0.1,0.2H78
		l0.3-0.9h0.2L78.9,5.4z M78.6,5.1l-0.1-0.3l-0.1,0.3H78.6z"/>
	<path class="st2" d="M64.3,90.6c0-3.6,2.9-6.4,6.5-6.4c1.7,0,3.4,0.7,4.6,1.9c1.2,1.2,1.9,2.8,1.9,4.6c0,3.6-2.9,6.4-6.5,6.4
		C67.2,97,64.3,94.1,64.3,90.6z"/>
	<path d="M68.1,91v-0.9h0.2v0.3h0.3v-0.3h0.2V91h-0.2v-0.4h-0.3V91H68.1z M69,91v-0.8h0.2v0.7h0.4V91H69z M70.5,91h-0.2l-0.1-0.2
		h-0.3L69.8,91h-0.2l0.3-0.9h0.2L70.5,91z M70.2,90.6l-0.1-0.3l-0.1,0.3H70.2z M70.6,90.8v-0.2h0.3v0.2H70.6z M71,90.1h0.3
		c0.1,0,0.1,0,0.2,0c0.1,0,0.1,0,0.1,0.1c0,0,0.1,0.1,0.1,0.1c0,0.1,0,0.1,0,0.2c0,0.1,0,0.1,0,0.2c0,0.1-0.1,0.1-0.1,0.2
		c0,0-0.1,0.1-0.1,0.1c0,0-0.1,0-0.2,0H71V90.1z M71.2,90.3v0.6h0.1c0,0,0.1,0,0.1,0c0,0,0.1,0,0.1,0c0,0,0,0,0-0.1c0,0,0-0.1,0-0.2
		c0-0.1,0-0.1,0-0.2c0,0,0-0.1,0-0.1c0,0,0,0-0.1,0C71.4,90.3,71.3,90.3,71.2,90.3L71.2,90.3z M71.9,91v-0.9h0.4c0.1,0,0.2,0,0.2,0
		c0,0,0.1,0,0.1,0.1c0,0,0,0.1,0,0.1c0,0.1,0,0.1-0.1,0.2c0,0-0.1,0.1-0.2,0.1c0,0,0.1,0,0.1,0.1c0,0,0.1,0.1,0.1,0.1l0.1,0.2h-0.2
		l-0.1-0.2c0-0.1-0.1-0.1-0.1-0.1c0,0,0,0-0.1,0c0,0,0,0-0.1,0h0V91H71.9z M72,90.5h0.1c0.1,0,0.1,0,0.2,0c0,0,0,0,0,0
		c0,0,0,0,0-0.1c0,0,0-0.1,0-0.1c0,0,0,0-0.1,0c0,0-0.1,0-0.1,0H72V90.5z M73.5,91h-0.2l-0.1-0.2h-0.3L72.8,91h-0.2l0.3-0.9h0.2
		L73.5,91z M73.2,90.6l-0.1-0.3l-0.1,0.3H73.2z"/>
	<path class="st2" d="M79.3,90.6c0-3.6,2.9-6.4,6.5-6.4c1.7,0,3.4,0.7,4.6,1.9c1.2,1.2,1.9,2.8,1.9,4.6c0,3.6-2.9,6.4-6.5,6.4
		S79.3,94.1,79.3,90.6z"/>
	<path d="M82.8,91v-0.9H83v0.3h0.3v-0.3h0.2V91h-0.2v-0.4H83V91H82.8z M83.7,91v-0.8h0.2v0.7h0.4V91H83.7z M85.2,91H85l-0.1-0.2
		h-0.3L84.5,91h-0.2l0.3-0.9h0.2L85.2,91z M84.8,90.6l-0.1-0.3l-0.1,0.3H84.8z M85.2,90.8v-0.2h0.3v0.2H85.2z M85.6,90.1H86
		c0.1,0,0.1,0,0.2,0c0.1,0,0.1,0,0.1,0.1c0,0,0.1,0.1,0.1,0.1c0,0.1,0,0.1,0,0.2c0,0.1,0,0.1,0,0.2c0,0.1-0.1,0.1-0.1,0.2
		c0,0-0.1,0.1-0.1,0.1c0,0-0.1,0-0.2,0h-0.3V90.1z M85.8,90.3v0.6h0.1c0,0,0.1,0,0.1,0c0,0,0.1,0,0.1,0c0,0,0,0,0-0.1
		c0,0,0-0.1,0-0.2c0-0.1,0-0.1,0-0.2c0,0,0-0.1,0-0.1c0,0,0,0-0.1,0C86,90.3,86,90.3,85.8,90.3L85.8,90.3z M86.5,91v-0.9h0.4
		c0.1,0,0.2,0,0.2,0c0,0,0.1,0,0.1,0.1c0,0,0,0.1,0,0.1c0,0.1,0,0.1-0.1,0.2c0,0-0.1,0.1-0.2,0.1c0,0,0.1,0,0.1,0.1
		c0,0,0.1,0.1,0.1,0.1l0.1,0.2h-0.2L87,90.8c0-0.1-0.1-0.1-0.1-0.1c0,0,0,0-0.1,0c0,0,0,0-0.1,0h0V91H86.5z M86.7,90.5h0.1
		c0.1,0,0.1,0,0.2,0c0,0,0,0,0,0c0,0,0,0,0-0.1c0,0,0-0.1,0-0.1c0,0,0,0-0.1,0c0,0-0.1,0-0.1,0h-0.1V90.5z M87.4,90.1h0.3
		c0.1,0,0.1,0,0.2,0c0,0,0.1,0,0.1,0c0,0,0,0,0.1,0.1c0,0,0,0.1,0,0.1c0,0,0,0.1,0,0.1c0,0,0,0.1-0.1,0.1c0.1,0,0.1,0,0.1,0.1
		c0,0,0,0.1,0,0.1c0,0,0,0.1,0,0.1c0,0,0,0.1-0.1,0.1c0,0-0.1,0-0.1,0c0,0-0.1,0-0.2,0h-0.3V90.1z M87.6,90.3v0.2h0.1
		c0.1,0,0.1,0,0.1,0c0,0,0.1,0,0.1,0c0,0,0,0,0-0.1c0,0,0,0,0-0.1c0,0,0,0-0.1,0C87.8,90.3,87.7,90.3,87.6,90.3L87.6,90.3z
		 M87.6,90.6v0.2h0.2c0.1,0,0.1,0,0.1,0c0,0,0,0,0.1,0c0,0,0,0,0-0.1c0,0,0,0,0-0.1c0,0,0,0-0.1,0c0,0-0.1,0-0.2,0H87.6z M88.6,91
		h-0.2v-0.6c-0.1,0.1-0.1,0.1-0.2,0.1v-0.1c0,0,0.1,0,0.1-0.1c0.1,0,0.1-0.1,0.1-0.1h0.1V91z"/>
	<path class="st2" d="M94.4,90.6c0-3.6,2.9-6.4,6.5-6.4c1.7,0,3.4,0.7,4.6,1.9c1.2,1.2,1.9,2.8,1.9,4.6c0,3.6-2.9,6.4-6.5,6.4
		C97.3,97,94.4,94.1,94.4,90.6z"/>
	<path d="M97.9,91v-0.9h0.2v0.3h0.3v-0.3h0.2V91h-0.2v-0.4h-0.3V91H97.9z M98.7,91v-0.8h0.2v0.7h0.4V91H98.7z M100.2,91h-0.2
		l-0.1-0.2h-0.3L99.6,91h-0.2l0.3-0.9h0.2L100.2,91z M99.9,90.6l-0.1-0.3l-0.1,0.3H99.9z M100.3,90.8v-0.2h0.3v0.2H100.3z
		 M100.7,90.1h0.3c0.1,0,0.1,0,0.2,0c0.1,0,0.1,0,0.1,0.1c0,0,0.1,0.1,0.1,0.1c0,0.1,0,0.1,0,0.2c0,0.1,0,0.1,0,0.2
		c0,0.1-0.1,0.1-0.1,0.2c0,0-0.1,0.1-0.1,0.1c0,0-0.1,0-0.2,0h-0.3V90.1z M100.9,90.3v0.6h0.1c0,0,0.1,0,0.1,0c0,0,0.1,0,0.1,0
		c0,0,0,0,0-0.1c0,0,0-0.1,0-0.2c0-0.1,0-0.1,0-0.2c0,0,0-0.1,0-0.1c0,0,0,0-0.1,0C101.1,90.3,101.1,90.3,100.9,90.3L100.9,90.3z
		 M101.6,91v-0.9h0.4c0.1,0,0.2,0,0.2,0c0,0,0.1,0,0.1,0.1c0,0,0,0.1,0,0.1c0,0.1,0,0.1-0.1,0.2c0,0-0.1,0.1-0.2,0.1
		c0,0,0.1,0,0.1,0.1c0,0,0.1,0.1,0.1,0.1l0.1,0.2h-0.2l-0.1-0.2c0-0.1-0.1-0.1-0.1-0.1c0,0,0,0-0.1,0c0,0,0,0-0.1,0h0V91H101.6z
		 M101.8,90.5h0.1c0.1,0,0.1,0,0.2,0c0,0,0,0,0,0c0,0,0,0,0-0.1c0,0,0-0.1,0-0.1c0,0,0,0-0.1,0c0,0-0.1,0-0.1,0h-0.1V90.5z
		 M102.5,90.1h0.3c0.1,0,0.1,0,0.2,0c0,0,0.1,0,0.1,0c0,0,0,0,0.1,0.1c0,0,0,0.1,0,0.1c0,0,0,0.1,0,0.1c0,0,0,0.1-0.1,0.1
		c0.1,0,0.1,0,0.1,0.1c0,0,0,0.1,0,0.1c0,0,0,0.1,0,0.1c0,0,0,0.1-0.1,0.1c0,0-0.1,0-0.1,0c0,0-0.1,0-0.2,0h-0.3V90.1z M102.6,90.3
		v0.2h0.1c0.1,0,0.1,0,0.1,0c0,0,0.1,0,0.1,0c0,0,0,0,0-0.1c0,0,0,0,0-0.1c0,0,0,0-0.1,0C102.9,90.3,102.8,90.3,102.6,90.3
		L102.6,90.3z M102.6,90.6v0.2h0.2c0.1,0,0.1,0,0.1,0c0,0,0,0,0.1,0c0,0,0,0,0-0.1c0,0,0,0,0-0.1c0,0,0,0-0.1,0c0,0-0.1,0-0.2,0
		H102.6z M103.3,90.8l0.2,0c0,0,0,0.1,0,0.1c0,0,0,0,0.1,0c0,0,0.1,0,0.1,0c0,0,0-0.1,0-0.1c0-0.1,0-0.1,0-0.1c0,0-0.1,0-0.1,0
		c0,0-0.1,0-0.1,0.1l-0.1,0l0.1-0.4h0.4v0.2h-0.3l0,0.1c0,0,0.1,0,0.1,0c0.1,0,0.1,0,0.2,0.1c0.1,0.1,0.1,0.1,0.1,0.2
		c0,0.1,0,0.1-0.1,0.2c-0.1,0.1-0.1,0.1-0.2,0.1c-0.1,0-0.1,0-0.2-0.1C103.3,90.9,103.3,90.8,103.3,90.8z"/>
	<path class="st2" d="M109.5,90.6c0-3.6,2.9-6.4,6.5-6.4c1.7,0,3.4,0.7,4.6,1.9c1.2,1.2,1.9,2.8,1.9,4.6c0,3.6-2.9,6.4-6.5,6.4
		C112.4,97,109.5,94.1,109.5,90.6z"/>
	<path d="M113,91v-0.9h0.2v0.3h0.3v-0.3h0.2V91h-0.2v-0.4h-0.3V91H113z M113.9,91v-0.8h0.2v0.7h0.4V91H113.9z M115.4,91h-0.2
		l-0.1-0.2h-0.3l-0.1,0.2h-0.2l0.3-0.9h0.2L115.4,91z M115.1,90.6l-0.1-0.3l-0.1,0.3H115.1z M115.4,90.8v-0.2h0.3v0.2H115.4z
		 M115.9,90.1h0.3c0.1,0,0.1,0,0.2,0c0.1,0,0.1,0,0.1,0.1c0,0,0.1,0.1,0.1,0.1c0,0.1,0,0.1,0,0.2c0,0.1,0,0.1,0,0.2
		c0,0.1-0.1,0.1-0.1,0.2c0,0-0.1,0.1-0.1,0.1c0,0-0.1,0-0.2,0h-0.3V90.1z M116,90.3v0.6h0.1c0,0,0.1,0,0.1,0c0,0,0.1,0,0.1,0
		c0,0,0,0,0-0.1c0,0,0-0.1,0-0.2c0-0.1,0-0.1,0-0.2c0,0,0-0.1,0-0.1c0,0,0,0-0.1,0C116.2,90.3,116.2,90.3,116,90.3L116,90.3z
		 M116.7,91v-0.9h0.3c0.1,0,0.2,0,0.2,0c0,0,0.1,0,0.1,0.1c0,0,0.1,0.1,0.1,0.2c0,0.1,0,0.1,0,0.1c0,0,0,0.1-0.1,0.1
		c0,0-0.1,0-0.1,0c0,0-0.1,0-0.2,0h-0.1V91H116.7z M116.9,90.3v0.2h0.1c0.1,0,0.1,0,0.1,0c0,0,0,0,0.1,0c0,0,0,0,0-0.1
		c0,0,0-0.1,0-0.1c0,0,0,0-0.1,0C117.1,90.3,117.1,90.3,116.9,90.3L116.9,90.3z M117.5,90.1h0.3c0.1,0,0.1,0,0.2,0c0,0,0.1,0,0.1,0
		c0,0,0,0,0.1,0.1c0,0,0,0.1,0,0.1c0,0,0,0.1,0,0.1c0,0,0,0.1-0.1,0.1c0.1,0,0.1,0,0.1,0.1c0,0,0,0.1,0,0.1c0,0,0,0.1,0,0.1
		c0,0,0,0.1-0.1,0.1c0,0-0.1,0-0.1,0c0,0-0.1,0-0.2,0h-0.3V90.1z M117.7,90.3v0.2h0.1c0.1,0,0.1,0,0.1,0c0,0,0.1,0,0.1,0
		c0,0,0,0,0-0.1c0,0,0,0,0-0.1c0,0,0,0-0.1,0C117.9,90.3,117.9,90.3,117.7,90.3L117.7,90.3z M117.7,90.6v0.2h0.2c0.1,0,0.1,0,0.1,0
		c0,0,0,0,0.1,0c0,0,0,0,0-0.1c0,0,0,0,0-0.1c0,0,0,0-0.1,0c0,0-0.1,0-0.2,0H117.7z M118.8,91h-0.2v-0.6c-0.1,0.1-0.1,0.1-0.2,0.1
		v-0.1c0,0,0.1,0,0.1-0.1c0.1,0,0.1-0.1,0.1-0.1h0.1V91z"/>
	<path class="st2" d="M124.4,90.6c0-3.6,2.9-6.4,6.5-6.4c1.7,0,3.4,0.7,4.6,1.9c1.2,1.2,1.9,2.8,1.9,4.6c0,3.6-2.9,6.4-6.5,6.4
		C127.3,97,124.4,94.1,124.4,90.6L124.4,90.6z"/>
	<path d="M127.9,91v-0.9h0.2v0.3h0.3v-0.3h0.2V91h-0.2v-0.4h-0.3V91H127.9z M128.8,91v-0.8h0.2v0.7h0.4V91H128.8z M130.3,91h-0.2
		l-0.1-0.2h-0.3l-0.1,0.2h-0.2l0.3-0.9h0.2L130.3,91z M130,90.6l-0.1-0.3l-0.1,0.3H130z M130.4,90.8v-0.2h0.3v0.2H130.4z
		 M130.8,90.1h0.3c0.1,0,0.1,0,0.2,0c0.1,0,0.1,0,0.1,0.1c0,0,0.1,0.1,0.1,0.1c0,0.1,0,0.1,0,0.2c0,0.1,0,0.1,0,0.2
		c0,0.1-0.1,0.1-0.1,0.2c0,0-0.1,0.1-0.1,0.1c0,0-0.1,0-0.2,0h-0.3V90.1z M131,90.3v0.6h0.1c0,0,0.1,0,0.1,0c0,0,0.1,0,0.1,0
		c0,0,0,0,0-0.1c0,0,0-0.1,0-0.2c0-0.1,0-0.1,0-0.2c0,0,0-0.1,0-0.1c0,0,0,0-0.1,0C131.2,90.3,131.1,90.3,131,90.3L131,90.3z
		 M132.3,90.9c0,0,0.1,0.1,0.1,0.1l-0.1,0.1c0,0-0.1,0-0.1,0c0,0,0,0-0.1-0.1c-0.1,0-0.1,0-0.2,0c-0.1,0-0.2,0-0.3-0.1
		c-0.1-0.1-0.1-0.2-0.1-0.3c0-0.1,0-0.2,0.1-0.3c0.1-0.1,0.2-0.1,0.3-0.1c0.1,0,0.2,0,0.3,0.1c0.1,0.1,0.1,0.2,0.1,0.3
		c0,0.1,0,0.1,0,0.2C132.4,90.8,132.4,90.8,132.3,90.9z M132.2,90.8C132.2,90.8,132.2,90.7,132.2,90.8c0.1-0.1,0.1-0.2,0.1-0.2
		c0-0.1,0-0.2-0.1-0.2c0-0.1-0.1-0.1-0.2-0.1c-0.1,0-0.1,0-0.2,0.1c0,0-0.1,0.1-0.1,0.2c0,0.1,0,0.2,0.1,0.2c0,0,0.1,0.1,0.2,0.1
		c0,0,0,0,0.1,0c0,0-0.1,0-0.1-0.1l0-0.1C132.1,90.7,132.2,90.7,132.2,90.8z M132.6,90.1h0.3c0.1,0,0.1,0,0.2,0c0,0,0.1,0,0.1,0
		c0,0,0,0,0.1,0.1c0,0,0,0.1,0,0.1c0,0,0,0.1,0,0.1c0,0,0,0.1-0.1,0.1c0.1,0,0.1,0,0.1,0.1c0,0,0,0.1,0,0.1c0,0,0,0.1,0,0.1
		c0,0,0,0.1-0.1,0.1c0,0-0.1,0-0.1,0c0,0-0.1,0-0.2,0h-0.3V90.1z M132.8,90.3v0.2h0.1c0.1,0,0.1,0,0.1,0c0,0,0.1,0,0.1,0
		c0,0,0,0,0-0.1c0,0,0,0,0-0.1c0,0,0,0-0.1,0C133,90.3,132.9,90.3,132.8,90.3L132.8,90.3z M132.8,90.6v0.2h0.2c0.1,0,0.1,0,0.1,0
		c0,0,0,0,0.1,0c0,0,0,0,0-0.1c0,0,0,0,0-0.1c0,0,0,0-0.1,0c0,0-0.1,0-0.2,0H132.8z M133.8,91h-0.2v-0.6c-0.1,0.1-0.1,0.1-0.2,0.1
		v-0.1c0,0,0.1,0,0.1-0.1c0.1,0,0.1-0.1,0.1-0.1h0.1V91z"/>
	<path class="st2" d="M169.4,90.6c0-3.6,2.9-6.4,6.5-6.4c1.7,0,3.4,0.7,4.6,1.9c1.2,1.2,1.9,2.8,1.9,4.6c0,3.6-2.9,6.4-6.5,6.4
		C172.3,97,169.4,94.1,169.4,90.6L169.4,90.6z"/>
	<path d="M173.2,91v-0.9h0.2v0.3h0.3v-0.3h0.2V91h-0.2v-0.4h-0.3V91H173.2z M174.1,91v-0.8h0.2v0.7h0.4V91H174.1z M175.6,91h-0.2
		l-0.1-0.2H175l-0.1,0.2h-0.2l0.3-0.9h0.2L175.6,91z M175.2,90.6l-0.1-0.3l-0.1,0.3H175.2z M175.6,90.8v-0.2h0.3v0.2H175.6z
		 M176.1,90.1h0.3c0.1,0,0.1,0,0.2,0c0.1,0,0.1,0,0.1,0.1c0,0,0.1,0.1,0.1,0.1c0,0.1,0,0.1,0,0.2c0,0.1,0,0.1,0,0.2
		c0,0.1-0.1,0.1-0.1,0.2c0,0-0.1,0.1-0.1,0.1c0,0-0.1,0-0.2,0h-0.3V90.1z M176.2,90.3v0.6h0.1c0,0,0.1,0,0.1,0c0,0,0.1,0,0.1,0
		c0,0,0,0,0-0.1c0,0,0-0.1,0-0.2c0-0.1,0-0.1,0-0.2c0,0,0-0.1,0-0.1c0,0,0,0-0.1,0C176.4,90.3,176.4,90.3,176.2,90.3L176.2,90.3z
		 M176.9,91v-0.9h0.3l0.2,0.6l0.2-0.6h0.3V91h-0.2v-0.7l-0.2,0.7h-0.2l-0.2-0.7V91H176.9z M177.9,90.1h0.3c0.1,0,0.1,0,0.2,0
		c0,0,0.1,0,0.1,0c0,0,0,0,0.1,0.1c0,0,0,0.1,0,0.1c0,0,0,0.1,0,0.1c0,0,0,0.1-0.1,0.1c0.1,0,0.1,0,0.1,0.1c0,0,0,0.1,0,0.1
		c0,0,0,0.1,0,0.1c0,0,0,0.1-0.1,0.1c0,0-0.1,0-0.1,0c0,0-0.1,0-0.2,0h-0.3V90.1z M178.1,90.3v0.2h0.1c0.1,0,0.1,0,0.1,0
		c0,0,0.1,0,0.1,0c0,0,0,0,0-0.1c0,0,0,0,0-0.1c0,0,0,0-0.1,0C178.3,90.3,178.3,90.3,178.1,90.3L178.1,90.3z M178.1,90.6v0.2h0.2
		c0.1,0,0.1,0,0.1,0c0,0,0,0,0.1,0c0,0,0,0,0-0.1c0,0,0,0,0-0.1c0,0,0,0-0.1,0c0,0-0.1,0-0.2,0H178.1z"/>
	<path class="st3" d="M109.6,71.6c0-3.6,2.9-6.4,6.5-6.4c1.7,0,3.4,0.7,4.6,1.9c1.2,1.2,1.9,2.8,1.9,4.6c0,3.6-2.9,6.4-6.5,6.4
		S109.6,75.2,109.6,71.6z"/>
	<path d="M115.1,67.4l0.2,0.1c0,0.1-0.1,0.2-0.1,0.2c-0.1,0-0.1,0.1-0.2,0.1c-0.1,0-0.2,0-0.3-0.1c-0.1-0.1-0.1-0.2-0.1-0.3
		c0-0.1,0-0.3,0.1-0.3c0.1-0.1,0.2-0.1,0.3-0.1c0.1,0,0.2,0,0.3,0.1c0,0,0.1,0.1,0.1,0.2l-0.2,0c0,0,0-0.1-0.1-0.1c0,0-0.1,0-0.1,0
		c-0.1,0-0.1,0-0.2,0.1c0,0-0.1,0.1-0.1,0.2c0,0.1,0,0.2,0.1,0.2c0,0,0.1,0.1,0.2,0.1c0,0,0.1,0,0.1,0C115,67.5,115,67.5,115.1,67.4
		z M115.4,67.7v-0.9h0.2v0.9H115.4z M115.9,67.7V67h-0.3v-0.1h0.7V67h-0.3v0.7H115.9z M116.6,67.7V67h-0.3v-0.1h0.7V67h-0.3v0.7
		H116.6z M117.9,67.7h-0.2l-0.1-0.2h-0.3l-0.1,0.2H117l0.3-0.9h0.2L117.9,67.7z M117.5,67.4l-0.1-0.3l-0.1,0.3H117.5z"/>
	<path class="st4" d="M85.8,46.9c0-3.6,2.9-6.4,6.5-6.4c1.7,0,3.4,0.7,4.6,1.9c1.2,1.2,1.9,2.8,1.9,4.6c0,3.6-2.9,6.4-6.5,6.4
		C88.7,53.3,85.8,50.4,85.8,46.9z"/>
	<path d="M91,42.3v-0.9h0.2v0.9H91z M91.4,42.3v-0.9h0.4c0.1,0,0.2,0,0.2,0c0,0,0.1,0,0.1,0.1c0,0,0,0.1,0,0.1c0,0.1,0,0.1-0.1,0.2
		c0,0-0.1,0.1-0.2,0.1c0,0,0.1,0,0.1,0.1c0,0,0.1,0.1,0.1,0.1l0.1,0.2h-0.2l-0.1-0.2c0-0.1-0.1-0.1-0.1-0.1c0,0,0,0-0.1,0
		c0,0,0,0-0.1,0h0v0.4H91.4z M91.5,41.8h0.1c0.1,0,0.1,0,0.2,0c0,0,0,0,0,0c0,0,0,0,0-0.1c0,0,0-0.1,0-0.1c0,0,0,0-0.1,0
		c0,0-0.1,0-0.1,0h-0.1V41.8z M92.2,42.3v-0.9h0.6v0.1h-0.4v0.2h0.4v0.1h-0.4v0.4H92.2z M93.4,42.3h-0.2v-0.6
		c-0.1,0.1-0.1,0.1-0.2,0.1v-0.1c0,0,0.1,0,0.1-0.1c0.1,0,0.1-0.1,0.1-0.1h0.1V42.3z"/>
	<path class="st0" d="M127.4,26.8c0-3.6,2.9-6.4,6.5-6.4c1.7,0,3.4,0.7,4.6,1.9c1.2,1.2,1.9,2.8,1.9,4.6c0,3.6-2.9,6.4-6.5,6.4
		S127.4,30.4,127.4,26.8L127.4,26.8z"/>
	<path d="M132,22.6l0.2,0.1c0,0.1-0.1,0.2-0.1,0.2c-0.1,0-0.1,0.1-0.2,0.1c-0.1,0-0.2,0-0.3-0.1c-0.1-0.1-0.1-0.2-0.1-0.3
		c0-0.1,0-0.3,0.1-0.3c0.1-0.1,0.2-0.1,0.3-0.1c0.1,0,0.2,0,0.3,0.1c0,0,0.1,0.1,0.1,0.2l-0.2,0c0,0,0-0.1-0.1-0.1c0,0-0.1,0-0.1,0
		c-0.1,0-0.1,0-0.2,0.1c0,0-0.1,0.1-0.1,0.2c0,0.1,0,0.2,0.1,0.2c0,0,0.1,0.1,0.2,0.1c0,0,0.1,0,0.1,0C132,22.7,132,22.7,132,22.6z
		 M132.4,22.9v-0.9h0.4c0.1,0,0.2,0,0.2,0c0,0,0.1,0,0.1,0.1c0,0,0,0.1,0,0.1c0,0.1,0,0.1-0.1,0.2c0,0-0.1,0.1-0.2,0.1
		c0,0,0.1,0,0.1,0.1c0,0,0.1,0.1,0.1,0.1l0.1,0.2h-0.2l-0.1-0.2c0-0.1-0.1-0.1-0.1-0.1c0,0,0,0-0.1,0c0,0,0,0-0.1,0h0v0.4H132.4z
		 M132.5,22.4h0.1c0.1,0,0.1,0,0.2,0c0,0,0,0,0,0c0,0,0,0,0-0.1c0,0,0-0.1,0-0.1c0,0,0,0-0.1,0c0,0-0.1,0-0.1,0h-0.1V22.4z
		 M133.2,22.9v-0.9h0.6v0.1h-0.5v0.2h0.4v0.1h-0.4v0.2h0.5v0.1H133.2z M134,22.1h0.3c0.1,0,0.1,0,0.2,0c0,0,0.1,0,0.1,0
		c0,0,0,0,0.1,0.1c0,0,0,0.1,0,0.1c0,0,0,0.1,0,0.1c0,0,0,0.1-0.1,0.1c0.1,0,0.1,0,0.1,0.1c0,0,0,0.1,0,0.1c0,0,0,0.1,0,0.1
		c0,0,0,0.1-0.1,0.1c0,0-0.1,0-0.1,0c0,0-0.1,0-0.2,0H134V22.1z M134.2,22.2v0.2h0.1c0.1,0,0.1,0,0.1,0c0,0,0.1,0,0.1,0
		c0,0,0,0,0-0.1c0,0,0,0,0-0.1c0,0,0,0-0.1,0C134.4,22.2,134.4,22.2,134.2,22.2L134.2,22.2z M134.2,22.6v0.2h0.2c0.1,0,0.1,0,0.1,0
		c0,0,0,0,0.1,0c0,0,0,0,0-0.1c0,0,0,0,0-0.1c0,0,0,0-0.1,0c0,0-0.1,0-0.2,0H134.2z M134.9,22.1h0.3c0.1,0,0.1,0,0.2,0
		c0,0,0.1,0,0.1,0c0,0,0,0,0.1,0.1c0,0,0,0.1,0,0.1c0,0,0,0.1,0,0.1c0,0,0,0.1-0.1,0.1c0.1,0,0.1,0,0.1,0.1c0,0,0,0.1,0,0.1
		c0,0,0,0.1,0,0.1c0,0,0,0.1-0.1,0.1c0,0-0.1,0-0.1,0c0,0-0.1,0-0.2,0h-0.3V22.1z M135.1,22.2v0.2h0.1c0.1,0,0.1,0,0.1,0
		c0,0,0.1,0,0.1,0c0,0,0,0,0-0.1c0,0,0,0,0-0.1c0,0,0,0-0.1,0C135.3,22.2,135.2,22.2,135.1,22.2L135.1,22.2z M135.1,22.6v0.2h0.2
		c0.1,0,0.1,0,0.1,0c0,0,0,0,0.1,0c0,0,0,0,0-0.1c0,0,0,0,0-0.1c0,0,0,0-0.1,0c0,0-0.1,0-0.2,0H135.1z M135.8,22.9v-0.9h0.3
		c0.1,0,0.2,0,0.2,0c0,0,0.1,0,0.1,0.1c0,0,0.1,0.1,0.1,0.2c0,0.1,0,0.1,0,0.1c0,0,0,0.1-0.1,0.1c0,0-0.1,0-0.1,0c0,0-0.1,0-0.2,0
		h-0.1v0.3H135.8z M135.9,22.2v0.2h0.1c0.1,0,0.1,0,0.1,0c0,0,0,0,0.1,0c0,0,0,0,0-0.1c0,0,0-0.1,0-0.1c0,0,0,0-0.1,0
		C136.1,22.2,136.1,22.2,135.9,22.2L135.9,22.2z"/>
	<path class="st2" d="M139.4,90.6c0-3.6,2.9-6.4,6.5-6.4c1.7,0,3.4,0.7,4.6,1.9c1.2,1.2,1.9,2.8,1.9,4.6c0,3.6-2.9,6.4-6.5,6.4
		C142.3,97,139.4,94.1,139.4,90.6L139.4,90.6z"/>
	<path d="M142.9,91v-0.9h0.2v0.3h0.3v-0.3h0.2V91h-0.2v-0.4h-0.3V91H142.9z M143.8,91v-0.8h0.2v0.7h0.4V91H143.8z M145.3,91h-0.2
		l-0.1-0.2h-0.3l-0.1,0.2h-0.2l0.3-0.9h0.2L145.3,91z M145,90.6l-0.1-0.3l-0.1,0.3H145z M145.4,90.8v-0.2h0.3v0.2H145.4z
		 M145.8,90.1h0.3c0.1,0,0.1,0,0.2,0c0.1,0,0.1,0,0.1,0.1c0,0,0.1,0.1,0.1,0.1c0,0.1,0,0.1,0,0.2c0,0.1,0,0.1,0,0.2
		c0,0.1-0.1,0.1-0.1,0.2c0,0-0.1,0.1-0.1,0.1c0,0-0.1,0-0.2,0h-0.3V90.1z M145.9,90.3v0.6h0.1c0,0,0.1,0,0.1,0c0,0,0.1,0,0.1,0
		c0,0,0,0,0-0.1c0,0,0-0.1,0-0.2c0-0.1,0-0.1,0-0.2c0,0,0-0.1,0-0.1c0,0,0,0-0.1,0C146.1,90.3,146.1,90.3,145.9,90.3L145.9,90.3z
		 M147.3,90.9c0,0,0.1,0.1,0.1,0.1l-0.1,0.1c0,0-0.1,0-0.1,0c0,0,0,0-0.1-0.1c-0.1,0-0.1,0-0.2,0c-0.1,0-0.2,0-0.3-0.1
		c-0.1-0.1-0.1-0.2-0.1-0.3c0-0.1,0-0.2,0.1-0.3c0.1-0.1,0.2-0.1,0.3-0.1c0.1,0,0.2,0,0.3,0.1c0.1,0.1,0.1,0.2,0.1,0.3
		c0,0.1,0,0.1,0,0.2C147.4,90.8,147.4,90.8,147.3,90.9z M147.2,90.8C147.2,90.8,147.2,90.7,147.2,90.8c0.1-0.1,0.1-0.2,0.1-0.2
		c0-0.1,0-0.2-0.1-0.2c0-0.1-0.1-0.1-0.2-0.1c-0.1,0-0.1,0-0.2,0.1c0,0-0.1,0.1-0.1,0.2c0,0.1,0,0.2,0.1,0.2c0,0,0.1,0.1,0.2,0.1
		c0,0,0,0,0.1,0c0,0-0.1,0-0.1-0.1l0-0.1C147.1,90.7,147.1,90.7,147.2,90.8z M147.6,90.1h0.3c0.1,0,0.1,0,0.2,0c0,0,0.1,0,0.1,0
		c0,0,0,0,0.1,0.1c0,0,0,0.1,0,0.1c0,0,0,0.1,0,0.1c0,0,0,0.1-0.1,0.1c0.1,0,0.1,0,0.1,0.1c0,0,0,0.1,0,0.1c0,0,0,0.1,0,0.1
		c0,0,0,0.1-0.1,0.1c0,0-0.1,0-0.1,0c0,0-0.1,0-0.2,0h-0.3V90.1z M147.7,90.3v0.2h0.1c0.1,0,0.1,0,0.1,0c0,0,0.1,0,0.1,0
		c0,0,0,0,0-0.1c0,0,0,0,0-0.1c0,0,0,0-0.1,0C148,90.3,147.9,90.3,147.7,90.3L147.7,90.3z M147.7,90.6v0.2h0.2c0.1,0,0.1,0,0.1,0
		c0,0,0,0,0.1,0c0,0,0,0,0-0.1c0,0,0,0,0-0.1c0,0,0,0-0.1,0c0,0-0.1,0-0.2,0H147.7z M148.8,91h-0.2v-0.6c-0.1,0.1-0.1,0.1-0.2,0.1
		v-0.1c0,0,0.1,0,0.1-0.1c0.1,0,0.1-0.1,0.1-0.1h0.1V91z"/>
	<path class="st2" d="M154.4,90.6c0-3.6,2.9-6.4,6.5-6.4c1.7,0,3.4,0.7,4.6,1.9c1.2,1.2,1.9,2.8,1.9,4.6c0,3.6-2.9,6.4-6.5,6.4
		C157.3,97,154.4,94.1,154.4,90.6L154.4,90.6z"/>
	<path d="M158.2,91v-0.9h0.2v0.3h0.3v-0.3h0.2V91h-0.2v-0.4h-0.3V91H158.2z M159.1,91v-0.8h0.2v0.7h0.4V91H159.1z M160.6,91h-0.2
		l-0.1-0.2H160l-0.1,0.2h-0.2l0.3-0.9h0.2L160.6,91z M160.3,90.6l-0.1-0.3l-0.1,0.3H160.3z M160.6,90.8v-0.2h0.3v0.2H160.6z
		 M161.1,90.1h0.3c0.1,0,0.1,0,0.2,0c0.1,0,0.1,0,0.1,0.1c0,0,0.1,0.1,0.1,0.1c0,0.1,0,0.1,0,0.2c0,0.1,0,0.1,0,0.2
		c0,0.1-0.1,0.1-0.1,0.2c0,0-0.1,0.1-0.1,0.1c0,0-0.1,0-0.2,0h-0.3V90.1z M161.2,90.3v0.6h0.1c0,0,0.1,0,0.1,0c0,0,0.1,0,0.1,0
		c0,0,0,0,0-0.1c0,0,0-0.1,0-0.2c0-0.1,0-0.1,0-0.2c0,0,0-0.1,0-0.1c0,0,0,0-0.1,0C161.4,90.3,161.4,90.3,161.2,90.3L161.2,90.3z
		 M161.9,91v-0.9h0.3l0.2,0.6l0.2-0.6h0.3V91h-0.2v-0.7l-0.2,0.7h-0.2l-0.2-0.7V91H161.9z M162.9,90.1h0.3c0.1,0,0.1,0,0.2,0
		c0,0,0.1,0,0.1,0c0,0,0,0,0.1,0.1c0,0,0,0.1,0,0.1c0,0,0,0.1,0,0.1c0,0,0,0.1-0.1,0.1c0.1,0,0.1,0,0.1,0.1c0,0,0,0.1,0,0.1
		c0,0,0,0.1,0,0.1c0,0,0,0.1-0.1,0.1c0,0-0.1,0-0.1,0c0,0-0.1,0-0.2,0h-0.3V90.1z M163.1,90.3v0.2h0.1c0.1,0,0.1,0,0.1,0
		c0,0,0.1,0,0.1,0c0,0,0,0,0-0.1c0,0,0,0,0-0.1c0,0,0,0-0.1,0C163.3,90.3,163.3,90.3,163.1,90.3L163.1,90.3z M163.1,90.6v0.2h0.2
		c0.1,0,0.1,0,0.1,0c0,0,0,0,0.1,0c0,0,0,0,0-0.1c0,0,0,0,0-0.1c0,0,0,0-0.1,0c0,0-0.1,0-0.2,0H163.1z"/>
	<path class="st5" d="M96.8,51.4l19.3,13.7"/>
	<path class="st6" d="M96.8,51.4l19.3,13.7"/>
	<path class="st2" d="M49.3,90.6c0-3.6,2.9-6.4,6.5-6.4c1.7,0,3.4,0.7,4.6,1.9c1.2,1.2,1.9,2.8,1.9,4.6c0,3.6-2.9,6.4-6.5,6.4
		C52.2,97,49.3,94.1,49.3,90.6L49.3,90.6z"/>
	<path class="st4" d="M50.5,35c0-3.6,2.9-6.4,6.5-6.4c1.7,0,3.4,0.7,4.6,1.9c1.2,1.2,1.9,2.8,1.9,4.6c0,3.6-2.9,6.4-6.5,6.4
		S50.5,38.6,50.5,35L50.5,35z"/>
	<path d="M55,31.1v-0.9h0.2v0.3h0.3v-0.3h0.2v0.9h-0.2v-0.4h-0.3v0.4H55z M55.9,30.2h0.3c0.1,0,0.1,0,0.2,0c0.1,0,0.1,0,0.1,0.1
		c0,0,0.1,0.1,0.1,0.1c0,0.1,0,0.1,0,0.2c0,0.1,0,0.1,0,0.2c0,0.1-0.1,0.1-0.1,0.2c0,0-0.1,0.1-0.1,0.1c0,0-0.1,0-0.2,0h-0.3V30.2z
		 M56,30.4V31h0.1c0,0,0.1,0,0.1,0c0,0,0.1,0,0.1,0c0,0,0,0,0-0.1c0,0,0-0.1,0-0.2c0-0.1,0-0.1,0-0.2c0,0,0-0.1,0-0.1c0,0,0,0-0.1,0
		C56.2,30.4,56.2,30.4,56,30.4L56,30.4z M57.5,31.1h-0.2l-0.1-0.2h-0.3l-0.1,0.2h-0.2l0.3-0.9h0.2L57.5,31.1z M57.2,30.8l-0.1-0.3
		l-0.1,0.3H57.2z M58.1,30.8l0.2,0.1c0,0.1-0.1,0.2-0.1,0.2s-0.1,0.1-0.2,0.1c-0.1,0-0.2,0-0.3-0.1c-0.1-0.1-0.1-0.2-0.1-0.3
		c0-0.1,0-0.3,0.1-0.3c0.1-0.1,0.2-0.1,0.3-0.1c0.1,0,0.2,0,0.3,0.1c0,0,0.1,0.1,0.1,0.2l-0.2,0c0,0,0-0.1-0.1-0.1c0,0-0.1,0-0.1,0
		c-0.1,0-0.1,0-0.2,0.1c0,0-0.1,0.1-0.1,0.2c0,0.1,0,0.2,0.1,0.2c0,0,0.1,0.1,0.2,0.1c0,0,0.1,0,0.1,0
		C58.1,30.9,58.1,30.9,58.1,30.8z M58.8,31.1h-0.2v-0.6c-0.1,0.1-0.1,0.1-0.2,0.1v-0.1c0,0,0.1,0,0.1-0.1c0.1,0,0.1-0.1,0.1-0.1h0.1
		V31.1z"/>
	<path class="st5" d="M77.3,15.7l10.4,26.6"/>
	<path class="st6" d="M77.3,15.7l10.4,26.6"/>
	<path class="st5" d="M116.4,15.7l17.5,4.7"/>
	<path class="st6" d="M116.4,15.7l17.5,4.7"/>
	<path class="st5" d="M116.1,78l59.8,6.1"/>
	<path class="st6" d="M116.1,78l59.8,6.1"/>
	<path class="st5" d="M116.1,78l-45.4,6.1"/>
	<path class="st6" d="M116.1,78l-45.4,6.1"/>
	<path class="st5" d="M116.1,78l-30.4,6.1"/>
	<path class="st6" d="M116.1,78l-30.4,6.1"/>
	<path class="st5" d="M116.1,78l-15.3,6.1"/>
	<path class="st6" d="M116.1,78l-15.3,6.1"/>
	<path class="st5" d="M116.1,78l-0.2,6.1"/>
	<path class="st6" d="M116.1,78l-0.2,6.1"/>
	<path class="st5" d="M116.1,78l14.8,6.1"/>
	<path class="st6" d="M116.1,78l14.8,6.1"/>
	<path class="st5" d="M116.1,78l29.8,6.1"/>
	<path class="st6" d="M116.1,78l29.8,6.1"/>
	<path class="st5" d="M116.1,78l44.8,6.1"/>
	<path class="st6" d="M116.1,78l44.8,6.1"/>
	<path class="st5" d="M116.1,78l-60.4,6.1"/>
	<path class="st6" d="M116.1,78l-60.4,6.1"/>
	<path class="st1" d="M110,46.9c0-3.6,2.9-6.4,6.5-6.4c1.7,0,3.4,0.7,4.6,1.9c1.2,1.2,1.9,2.8,1.9,4.6c0,3.6-2.9,6.4-6.5,6.4
		S110,50.4,110,46.9L110,46.9z"/>
	<path d="M115,42.3v-0.9h0.6v0.1h-0.5v0.2h0.4v0.1h-0.4v0.2h0.5v0.1H115z M115.7,42.3v-0.2l0.5-0.6h-0.4v-0.1h0.6v0.1l-0.5,0.6h0.5
		v0.1H115.7z M116.5,42.3v-0.9h0.2v0.3h0.3v-0.3h0.2v0.9H117v-0.4h-0.3v0.4H116.5z M117.9,42.1v0.2h-0.6c0-0.1,0-0.1,0.1-0.2
		c0-0.1,0.1-0.1,0.2-0.2c0.1-0.1,0.1-0.1,0.1-0.1c0,0,0-0.1,0-0.1c0,0,0-0.1,0-0.1c0,0,0,0-0.1,0c0,0-0.1,0-0.1,0c0,0,0,0.1,0,0.1
		l-0.2,0c0-0.1,0-0.2,0.1-0.2c0.1,0,0.1-0.1,0.2-0.1c0.1,0,0.2,0,0.2,0.1c0,0,0.1,0.1,0.1,0.2c0,0,0,0.1,0,0.1s0,0.1-0.1,0.1
		c0,0-0.1,0.1-0.1,0.1c-0.1,0-0.1,0.1-0.1,0.1c0,0,0,0,0,0H117.9z"/>
	<path class="st5" d="M77.3,15.7L57,28.6"/>
	<path class="st6" d="M77.3,15.7L57,28.6"/>
	<path class="st5" d="M133.9,33.3l-17.5,7.2"/>
	<path class="st6" d="M133.9,33.3l-17.5,7.2"/>
	<path class="st5" d="M116.4,53.3l-0.3,11.8"/>
	<path class="st6" d="M116.4,53.3l-0.3,11.8"/>
	<path class="st2" d="M184.4,90.6c0-3.6,2.9-6.4,6.5-6.4c1.7,0,3.4,0.7,4.6,1.9c1.2,1.2,1.9,2.8,1.9,4.6c0,3.6-2.9,6.4-6.5,6.4
		S184.4,94.1,184.4,90.6L184.4,90.6z"/>
	<path d="M187.9,91v-0.9h0.2v0.3h0.3v-0.3h0.2V91h-0.2v-0.4h-0.3V91H187.9z M188.8,91v-0.8h0.2v0.7h0.4V91H188.8z M190.3,91h-0.2
		l-0.1-0.2h-0.3l-0.1,0.2h-0.2l0.3-0.9h0.2L190.3,91z M189.9,90.6l-0.1-0.3l-0.1,0.3H189.9z M190.3,90.8v-0.2h0.3v0.2H190.3z
		 M190.7,90.1h0.3c0.1,0,0.1,0,0.2,0c0.1,0,0.1,0,0.1,0.1c0,0,0.1,0.1,0.1,0.1c0,0.1,0,0.1,0,0.2c0,0.1,0,0.1,0,0.2
		c0,0.1-0.1,0.1-0.1,0.2c0,0-0.1,0.1-0.1,0.1c0,0-0.1,0-0.2,0h-0.3V90.1z M190.9,90.3v0.6h0.1c0,0,0.1,0,0.1,0c0,0,0.1,0,0.1,0
		c0,0,0,0,0-0.1c0,0,0-0.1,0-0.2c0-0.1,0-0.1,0-0.2c0,0,0-0.1,0-0.1c0,0,0,0-0.1,0C191.1,90.3,191.1,90.3,190.9,90.3L190.9,90.3z
		 M192.3,90.9c0,0,0.1,0.1,0.1,0.1l-0.1,0.1c0,0-0.1,0-0.1,0c0,0,0,0-0.1-0.1c-0.1,0-0.1,0-0.2,0c-0.1,0-0.2,0-0.3-0.1
		c-0.1-0.1-0.1-0.2-0.1-0.3c0-0.1,0-0.2,0.1-0.3c0.1-0.1,0.2-0.1,0.3-0.1c0.1,0,0.2,0,0.3,0.1c0.1,0.1,0.1,0.2,0.1,0.3
		c0,0.1,0,0.1,0,0.2C192.4,90.8,192.3,90.8,192.3,90.9z M192.2,90.8C192.2,90.8,192.2,90.7,192.2,90.8c0.1-0.1,0.1-0.2,0.1-0.2
		c0-0.1,0-0.2-0.1-0.2c0-0.1-0.1-0.1-0.2-0.1c-0.1,0-0.1,0-0.2,0.1c0,0-0.1,0.1-0.1,0.2c0,0.1,0,0.2,0.1,0.2c0,0,0.1,0.1,0.2,0.1
		c0,0,0,0,0.1,0c0,0-0.1,0-0.1-0.1l0-0.1C192.1,90.7,192.1,90.7,192.2,90.8z M193.3,91h-0.2l-0.1-0.2h-0.3l-0.1,0.2h-0.2l0.3-0.9
		h0.2L193.3,91z M193,90.6l-0.1-0.3l-0.1,0.3H193z M193.8,91h-0.2v-0.6c-0.1,0.1-0.1,0.1-0.2,0.1v-0.1c0,0,0.1,0,0.1-0.1
		c0.1,0,0.1-0.1,0.1-0.1h0.1V91z"/>
	<path class="st0" d="M92.5,26c0-3.6,2.9-6.4,6.5-6.4c1.7,0,3.4,0.7,4.6,1.9s1.9,2.8,1.9,4.6c0,3.6-2.9,6.4-6.5,6.4
		S92.5,29.6,92.5,26L92.5,26z"/>
	<path d="M97.8,22.1v-0.7h-0.3v-0.1h0.7v0.1H98v0.7H97.8z M98.3,22.1v-0.9h0.3c0.1,0,0.2,0,0.2,0c0,0,0.1,0,0.1,0.1
		c0,0,0.1,0.1,0.1,0.2c0,0.1,0,0.1,0,0.1c0,0,0,0.1-0.1,0.1c0,0-0.1,0-0.1,0c0,0-0.1,0-0.2,0h-0.1v0.3H98.3z M98.5,21.4v0.2h0.1
		c0.1,0,0.1,0,0.1,0c0,0,0,0,0.1,0c0,0,0,0,0-0.1c0,0,0-0.1,0-0.1c0,0,0,0-0.1,0C98.7,21.4,98.7,21.4,98.5,21.4L98.5,21.4z
		 M99.1,21.9l0.2,0c0,0,0,0.1,0,0.1c0,0,0,0,0.1,0c0,0,0.1,0,0.1,0c0,0,0-0.1,0-0.1c0-0.1,0-0.1,0-0.1c0,0-0.1,0-0.1,0
		c0,0-0.1,0-0.1,0.1l-0.1,0l0.1-0.4h0.4v0.2h-0.3l0,0.1c0,0,0.1,0,0.1,0c0.1,0,0.1,0,0.2,0.1c0.1,0.1,0.1,0.1,0.1,0.2
		c0,0.1,0,0.1-0.1,0.2c-0.1,0.1-0.1,0.1-0.2,0.1c-0.1,0-0.1,0-0.2-0.1C99.1,22.1,99.1,22,99.1,21.9z M99.8,21.9l0.2,0
		c0,0,0,0.1,0,0.1c0,0,0,0,0.1,0c0,0,0.1,0,0.1,0c0,0,0-0.1,0-0.1c0,0,0-0.1,0-0.1c0,0,0,0-0.1,0c0,0,0,0-0.1,0l0-0.1
		c0,0,0.1,0,0.1,0c0,0,0,0,0-0.1c0,0,0-0.1,0-0.1c0,0,0,0-0.1,0c0,0-0.1,0-0.1,0c0,0,0,0,0,0.1l-0.2,0c0-0.1,0-0.1,0-0.1
		c0,0,0.1-0.1,0.1-0.1c0,0,0.1,0,0.1,0c0.1,0,0.1,0,0.2,0.1c0,0,0.1,0.1,0.1,0.1c0,0.1,0,0.1-0.1,0.2c0,0,0.1,0,0.1,0.1
		c0,0,0,0.1,0,0.1c0,0.1,0,0.1-0.1,0.2c-0.1,0.1-0.1,0.1-0.2,0.1c-0.1,0-0.1,0-0.2-0.1C99.8,22.1,99.8,22,99.8,21.9z"/>
	<path class="st5" d="M99,32.5l17.5,8"/>
	<path class="st6" d="M99,32.5l17.5,8"/>
	<path class="st5" d="M116.1,78l74.8,6.1"/>
	<path class="st6" d="M116.1,78l74.8,6.1"/>
	<path class="st7" d="M57,41.4c0,2.2,6,6.1,10.5,4.5C72,44.4,75,37.4,78,30.5c3-6.9,6-13.9,10.5-15.4S99,17.3,99,19.6"/>
	<path class="st6" d="M57,41.4c0,2.2,6,6.1,10.5,4.5C72,44.4,75,37.4,78,30.5c3-6.9,6-13.9,10.5-15.4S99,17.3,99,19.6"/>
	<path class="st5" d="M116.4,15.7L99,19.6"/>
	<path class="st6" d="M116.4,15.7L99,19.6"/>
	<path class="st8" d="M141.4,45.7c0-3.6,2.9-6.4,6.5-6.4c1.7,0,3.4,0.7,4.6,1.9c1.2,1.2,1.9,2.8,1.9,4.6c0,3.6-2.9,6.4-6.5,6.4
		C144.3,52.1,141.4,49.2,141.4,45.7L141.4,45.7z"/>
	<path d="M146.3,41.8v-0.9h0.3l0.2,0.6l0.2-0.6h0.3v0.9h-0.2v-0.7l-0.2,0.7h-0.2l-0.2-0.7v0.7H146.3z M147.5,41.8v-0.4l-0.3-0.5h0.2
		l0.2,0.3l0.2-0.3h0.2l-0.3,0.5v0.4H147.5z M148.6,41.5l0.2,0.1c0,0.1-0.1,0.2-0.1,0.2c-0.1,0-0.1,0.1-0.2,0.1c-0.1,0-0.2,0-0.3-0.1
		c-0.1-0.1-0.1-0.2-0.1-0.3c0-0.1,0-0.3,0.1-0.3c0.1-0.1,0.2-0.1,0.3-0.1c0.1,0,0.2,0,0.3,0.1c0,0,0.1,0.1,0.1,0.2l-0.2,0
		c0,0,0-0.1-0.1-0.1c0,0-0.1,0-0.1,0c-0.1,0-0.1,0-0.2,0.1c0,0-0.1,0.1-0.1,0.2c0,0.1,0,0.2,0.1,0.2c0,0,0.1,0.1,0.2,0.1
		c0,0,0.1,0,0.1,0C148.6,41.6,148.6,41.5,148.6,41.5z M148.9,41.8v-0.9h0.2l0.3,0.6v-0.6h0.2v0.9h-0.2l-0.3-0.6v0.6H148.9z"/>
	<path class="st5" d="M147.9,52.1l-31.8,13.1"/>
	<path class="st6" d="M147.9,52.1l-31.8,13.1"/>
	<g transform="matrix(0.223618,0,0,0.173508,496.047,57.4922)">
		<g transform="matrix(1,0,0,1,-261.418,-180)">
			<g id="figure_1">
				<g id="axes_1">
					<g transform="matrix(1,0,0,1,0,360)">
						<g id="PolyCollection_1">
							<g>
								<path id="m0639f64ed5" class="st9" d="M-1456.3-452.7v10.4l8.4-30.3l16.9,36.3l8.4-2.7l8.4-3.7v-7.8l-8.4,0l-8.4,1.2
									l-16.9-29.6L-1456.3-452.7z"/>
							</g>
						</g>
					</g>
					<g transform="matrix(1,0,0,1,0,360)">
						<g id="PolyCollection_2">
							<g>
								<path id="m2e8fe9fc9f" class="st10" d="M-1456.3-449.7v13.3l8.4-6.1l16.9,8.7l8.4,2.7l8.4-3.4v-12.7l-8.4-0.6l-8.4-11.5
									l-16.9,12.4L-1456.3-449.7z"/>
							</g>
						</g>
					</g>
					<g id="matplotlib.axis_1">
					</g>
					<g id="matplotlib.axis_2">
					</g>
					<g id="line2d_25">
						<path class="st11" d="M-1456.3-87.2l8.4-28.6l16.9,33.3l8.4-2l8.4-2"/>
					</g>
					<g id="line2d_26">
						<path class="st12" d="M-1456.3-82.7l8.4-2l16.9-1.3l8.4,6.9l8.4-1.5"/>
					</g>
					<g id="patch_4">
					</g>
				</g>
			</g>
		</g>
	</g>
	<g id="axes_11" transform="matrix(0.266791,0,0,0.151613,600.951,231.623)" serif:id="axes_1">
		<g transform="matrix(1,0,0,1,0,360)">
			<g id="PolyCollection_11" serif:id="PolyCollection_1">
				<g>
					<path id="m8ede9a2888" class="st9" d="M-1719.5-1581.1v9.8l8.4-14.9l16.9,24.9l8.4,1.3l8.4-2.5v-4.4l-8.4,3.5l-8.4-7.3
						l-16.9-21.3L-1719.5-1581.1z"/>
				</g>
			</g>
		</g>
		<g transform="matrix(1,0,0,1,0,360)">
			<g id="PolyCollection_21" serif:id="PolyCollection_2">
				<g>
					<path id="m6c1d5b9824" class="st10" d="M-1719.5-1586.2v15.6l8.4-29.5l16.9,40.5h16.9v-5.5l-8.4-2.9l-8.4-12.9l-16.9-26.6
						L-1719.5-1586.2z"/>
				</g>
			</g>
		</g>
		<g id="matplotlib.axis_11" serif:id="matplotlib.axis_1">
		</g>
		<g id="matplotlib.axis_21" serif:id="matplotlib.axis_2">
		</g>
		<g id="line2d_27">
			<path class="st11" d="M-1719.5-1215.9l8.4-13.3l16.9,23.7l8.4,4.1l8.4-3.2"/>
		</g>
		<g id="line2d_28">
			<path class="st12" d="M-1719.5-1218.2l8.4-25.5l16.9,36.9l8.4,4.3l8.4,0.9"/>
		</g>
	</g>
	<g transform="matrix(0.280275,0,0,0.173531,397.747,148.5)">
		<g transform="matrix(1,0,0,1,-261.418,-180)">
			<g id="figure_11" serif:id="figure_1">
				<g id="axes_12" serif:id="axes_1">
					<g id="patch_2">
					</g>
					<g transform="matrix(1,0,0,1,0,360)">
						<g id="PolyCollection_12" serif:id="PolyCollection_1">
							<g>
								<path id="m9e06dbc633" class="st9" d="M-827-879.9v12.6l8.4-21.9l16.9,22.4l8.4-4.5l8.4-20.3v-14.2l-8.4,15.5l-8.4,6.6
									l-16.9-12.6L-827-879.9z"/>
							</g>
						</g>
					</g>
					<g transform="matrix(1,0,0,1,0,360)">
						<g id="PolyCollection_22" serif:id="PolyCollection_2">
							<g>
								<path id="m3575ef7440" class="st10" d="M-827-886.2v19.9l8.4-14.4l16.9,16.5l8.4,3.2l8.4-4.8v-21.2l-8.4-3.8l-8.4-18.1
									l-16.9,20.5L-827-886.2z"/>
							</g>
						</g>
					</g>
					<g id="matplotlib.axis_12" serif:id="matplotlib.axis_1">
					</g>
					<g id="matplotlib.axis_22" serif:id="matplotlib.axis_2">
					</g>
					<g id="line2d_23">
						<path class="st11" d="M-827-513.6l8.4-19l16.9,17.9l8.4-5.6l8.4-18.7"/>
					</g>
					<g id="line2d_24">
						<path class="st12" d="M-827-515.6l8.4-8.9l16.9-0.1l8.4,9.8l8.4-1.6"/>
					</g>
					<g id="patch_41" serif:id="patch_4">
					</g>
				</g>
			</g>
		</g>
	</g>
	<g transform="matrix(0.260515,0,0,0.204017,280.882,56.9568)">
		<g transform="matrix(1,0,0,1,-261.418,-180)">
			<g id="figure_12" serif:id="figure_1">
				<g id="patch_1">
				</g>
				<g id="axes_13" serif:id="axes_1">
					<g id="patch_21" serif:id="patch_2">
					</g>
					<g transform="matrix(1,0,0,1,0,360)">
						<g id="PolyCollection_13" serif:id="PolyCollection_1">
							<g>
								<path id="mfd2f0534db" class="st9" d="M-539.6-415.9v9.4l8.4,2l16.9,14.4l8.4-1.3l8.4-12.8v-8.1l-8.4,10.9l-8.4,1.1l-16.9-8
									L-539.6-415.9z"/>
							</g>
						</g>
					</g>
					<g transform="matrix(1,0,0,1,0,360)">
						<g id="PolyCollection_23" serif:id="PolyCollection_2">
							<g>
								<path id="m0103479094" class="st10" d="M-539.6-436.2v17.9l8.4,13.4l16.9,16.7l8.4-1l8.4-15.3v-15.5l-8.4,11.8l-8.4-6.1
									l-16.9,5.2L-539.6-436.2z"/>
							</g>
						</g>
					</g>
					<g id="matplotlib.axis_13" serif:id="matplotlib.axis_1">
					</g>
					<g id="line2d_29">
						<path class="st11" d="M-539.6-51.2l8.4,4.8l16.9,11.5l8.4-1.4l8.4-12"/>
					</g>
					<g id="line2d_30">
						<path class="st12" d="M-539.6-67.1l8.4,20.1l16.9,6.4l8.4,2.1l8.4-13.8"/>
					</g>
				</g>
			</g>
		</g>
	</g>
	<g transform="matrix(0.280989,0,0,0.196981,165.706,199.78)">
		<g transform="matrix(1,0,0,1,-261.418,-180)">
			<g id="figure_13" serif:id="figure_1">
				<g id="patch_11" serif:id="patch_1">
				</g>
				<g id="axes_14" serif:id="axes_1">
					<g transform="matrix(1,0,0,1,0,360)">
						<g id="PolyCollection_14" serif:id="PolyCollection_1">
							<g>
								<path id="m4200fe0e0f" class="st9" d="M-147.1-1025.1v8.6l8.4-11.6l16.9,23.1l8.4,2.2l8.4-19.7v-8.2l-8.4,17.5l-8.4-3.5
									l-16.9-15.5L-147.1-1025.1z"/>
							</g>
						</g>
					</g>
					<g transform="matrix(1,0,0,1,0,360)">
						<g id="PolyCollection_24" serif:id="PolyCollection_2">
							<g>
								<path id="m4ccea456e4" class="st10" d="M-147.1-1030.3v14.3l8.4-17.4l16.9,42.3l8.4-1.7l8.4-15.5v-14.5l-8.4,16.2l-8.4-9.7
									l-16.9-22.2L-147.1-1030.3z"/>
							</g>
						</g>
					</g>
					<g id="line2d_291" serif:id="line2d_29">
						<path class="st11" d="M-147.1-660.8l8.4-9.2l16.9,19.4l8.4,2.8l8.4-18.7"/>
					</g>
					<g id="line2d_301" serif:id="line2d_30">
						<path class="st12" d="M-147.1-662.9l8.4-12.9l16.9,33.4l8.4,3.3l8.4-16.5"/>
					</g>
					<g id="patch_3">
					</g>
					<g id="patch_42" serif:id="patch_4">
					</g>
				</g>
			</g>
		</g>
	</g>
	<g transform="matrix(0.247449,0,0,0.215563,363.575,268.73)">
		<g transform="matrix(1,0,0,1,-261.418,-180)">
			<g id="figure_14" serif:id="figure_1">
				<g id="patch_12" serif:id="patch_1">
				</g>
				<g id="axes_15" serif:id="axes_1">
					<g id="patch_22" serif:id="patch_2">
					</g>
					<g transform="matrix(1,0,0,1,0,360)">
						<g id="PolyCollection_15" serif:id="PolyCollection_1">
							<g>
								<path id="m6961717733" class="st9" d="M-854.5-1226.2v9l8.4,15.2l16.9,20.3l8.4-7.5l8.4-8.5v-6.9l-8.4,5.8l-8.4,7.1
									l-16.9-13.9L-854.5-1226.2z"/>
							</g>
						</g>
					</g>
					<g transform="matrix(1,0,0,1,0,360)">
						<g id="PolyCollection_25" serif:id="PolyCollection_2">
							<g>
								<path id="m68e47ee8c1" class="st10" d="M-854.5-1229.5v14.4l8.4,21.3l16.9,2.7l8.4,5.1l8.4-12.6v-14.2l-8.4,8l-8.4-12.5
									l-16.9,19.4L-854.5-1229.5z"/>
							</g>
						</g>
					</g>
					<g id="matplotlib.axis_14" serif:id="matplotlib.axis_1">
					</g>
					<g id="line2d_292" serif:id="line2d_29">
						<path class="st11" d="M-854.5-861.7l8.4,18l16.9,17l8.4-7.3l8.4-7"/>
					</g>
					<g id="line2d_302" serif:id="line2d_30">
						<path class="st12" d="M-854.5-862.2l8.4,26.4l16.9-8.1l8.4,8.8l8.4-10.3"/>
					</g>
				</g>
			</g>
		</g>
	</g>
	<g transform="matrix(0.256337,0,0,0.164108,497.038,262.08)">
		<g transform="matrix(1,0,0,1,-261.418,-180)">
			<g id="figure_15" serif:id="figure_1">
				<g id="axes_16" serif:id="axes_1">
					<g transform="matrix(1,0,0,1,0,360)">
						<g id="PolyCollection_16" serif:id="PolyCollection_1">
							<g>
								<path id="m33cce3bdfa" class="st9" d="M-1243.7-1478.8v7.5l8.4-17.3l16.9,19.8l8.4-2.6l8.4-14.3v-9l-8.4,13.4l-8.4,3.1
									l-16.9-14.8L-1243.7-1478.8z"/>
							</g>
						</g>
					</g>
					<g transform="matrix(1,0,0,1,0,360)">
						<g id="PolyCollection_26" serif:id="PolyCollection_2">
							<g>
								<path id="m3c5ef2d1b3" class="st10" d="M-1243.7-1490v14.2l8.4-13.7l16.9,12.6l8.4,5.8l8.4-9.6v-18.2l-8.4,8.9l-8.4-26.8
									l-16.9,21.9L-1243.7-1490z"/>
							</g>
						</g>
					</g>
					<g id="matplotlib.axis_15" serif:id="matplotlib.axis_1">
					</g>
					<g id="matplotlib.axis_23" serif:id="matplotlib.axis_2">
					</g>
					<g id="line2d_251" serif:id="line2d_25">
						<path class="st11" d="M-1243.7-1114.8l8.4-16l16.9,17.6l8.4-3l8.4-13.9"/>
					</g>
					<g id="line2d_261" serif:id="line2d_26">
						<path class="st12" d="M-1243.7-1122.5l8.4-9.7l16.9-2.3l8.4,14.8l8.4-9.8"/>
					</g>
					<g id="patch_31" serif:id="patch_3">
					</g>
				</g>
			</g>
		</g>
	</g>
	<g transform="matrix(0.241006,0,0,0.187101,490.563,398.967)">
		<g transform="matrix(1,0,0,1,-261.418,-180)">
			<g id="figure_16" serif:id="figure_1">
				<g id="axes_17" serif:id="axes_1">
					<g id="patch_23" serif:id="patch_2">
					</g>
					<g transform="matrix(1,0,0,1,0,360)">
						<g id="PolyCollection_17" serif:id="PolyCollection_1">
							<g>
								<path id="mdd69fa1199" class="st9" d="M-1315.7-1949.6v10l8.4,14.5l16.9,0.5l8.4,7.9l8.4-29.7v-9.5l-8.4,29.9l-8.4-12.3
									l-16.9,9.7L-1315.7-1949.6z"/>
							</g>
						</g>
					</g>
					<g transform="matrix(1,0,0,1,0,360)">
						<g id="PolyCollection_27" serif:id="PolyCollection_2">
							<g>
								<path id="m629c514719" class="st10" d="M-1315.7-1921.8v11l8.4,2.9l16.9-5.5l8.4,4.3l8.4-27.1v-16.8l-8.4,25.6l-8.4-14
									l-16.9,30.6L-1315.7-1921.8z"/>
							</g>
						</g>
					</g>
					<g id="matplotlib.axis_16" serif:id="matplotlib.axis_1">
					</g>
					<g id="matplotlib.axis_24" serif:id="matplotlib.axis_2">
					</g>
					<g id="line2d_293" serif:id="line2d_29">
						<path class="st11" d="M-1315.7-1584.6l8.4,17.9l16.9-4.4l8.4,10l8.4-30"/>
					</g>
					<g id="line2d_303" serif:id="line2d_30">
						<path class="st12" d="M-1315.7-1556.3l8.4,6.9l16.9-17l8.4,7.7l8.4-25.9"/>
					</g>
				</g>
			</g>
		</g>
	</g>
	<g transform="matrix(0.246657,0,0,0.154665,593.262,154.25)">
		<g transform="matrix(1,0,0,1,-261.418,-180)">
			<g id="figure_17" serif:id="figure_1">
				<g id="patch_13" serif:id="patch_1">
				</g>
				<g id="axes_18" serif:id="axes_1">
					<g id="patch_24" serif:id="patch_2">
					</g>
					<g transform="matrix(1,0,0,1,0,360)">
						<g id="PolyCollection_18" serif:id="PolyCollection_1">
							<g>
								<path id="m9ab680b358" class="st9" d="M-1621.6-995.1v9.6l8.4-5.6l16.9,13.1l8.4-7.5l8.4-2.7v-9.3l-8.4-0.7l-8.4,7.3
									l-16.9-4.8L-1621.6-995.1z"/>
							</g>
						</g>
					</g>
					<g transform="matrix(1,0,0,1,0,360)">
						<g id="PolyCollection_28" serif:id="PolyCollection_2">
							<g>
								<path id="m65c8771c8a" class="st10" d="M-1621.6-1003.8v15.7l8.4-3.8l16.9,14.6l8.4-19.9l8.4,10.1v-17.2l-8.4-20.8
									l-8.4,13.9l-16.9,14.3L-1621.6-1003.8z"/>
							</g>
						</g>
					</g>
					<g id="matplotlib.axis_17" serif:id="matplotlib.axis_1">
					</g>
					<g id="matplotlib.axis_25" serif:id="matplotlib.axis_2">
					</g>
					<g id="line2d_252" serif:id="line2d_25">
						<path class="st11" d="M-1621.6-629.9l8.4-3.6l16.9,9.2l8.4-7.7l8.4-1"/>
					</g>
					<g id="line2d_262" serif:id="line2d_26">
						<path class="st12" d="M-1621.6-635.7l8.4,1.3l16.9,1.2l8.4-17.6l8.4,15.4"/>
					</g>
				</g>
				<g id="legend_1">
				</g>
			</g>
		</g>
	</g>
	<text transform="matrix(0.12 0 0 0.12 52.5507 91.244)" class="st13 st14">CD74</text>
</g>
</svg>
